<!DOCTYPE svg PUBLIC "-//W3C//DTD SVG 20010904//EN" "http://www.w3.org/TR/2001/REC-SVG-20010904/DTD/svg10.dtd">
<svg version="1.0" xmlns="http://www.w3.org/2000/svg" width="1600px" height="679px" viewBox="0 0 16000 6790" preserveAspectRatio="xMidYMid meet">
<g id="layer101" fill="#336834" stroke="none">
 <path d="M4375 6780 c-3 -5 -30 -10 -59 -10 -82 0 -270 -21 -281 -31 -5 -5 -26 -9 -47 -9 -21 0 -38 -4 -38 -10 0 -6 -26 -10 -59 -10 -33 0 -63 -4 -66 -10 -3 -5 -17 -10 -30 -10 -13 0 -26 -4 -29 -9 -3 -4 -39 -14 -81 -22 -41 -7 -75 -16 -75 -20 0 -3 -27 -12 -60 -19 -33 -7 -60 -17 -60 -21 0 -5 -9 -9 -21 -9 -11 0 -30 -5 -42 -12 -32 -18 -89 -38 -109 -38 -10 0 -18 -4 -18 -10 0 -5 -6 -10 -12 -10 -7 0 -40 -14 -73 -30 -33 -16 -67 -30 -76 -30 -8 0 -24 -8 -35 -19 -11 -10 -36 -24 -56 -30 -20 -7 -42 -19 -48 -27 -7 -7 -17 -14 -22 -14 -12 0 -128 -69 -146 -87 -7 -7 -20 -13 -28 -13 -8 0 -17 -7 -20 -15 -4 -8 -14 -15 -24 -15 -10 0 -20 -6 -23 -13 -2 -6 -35 -30 -72 -52 -37 -21 -69 -45 -72 -52 -3 -7 -10 -13 -15 -13 -11 0 -56 -34 -114 -87 -20 -18 -38 -33 -40 -33 -23 0 -419 -404 -433 -441 -1 -6 -25 -34 -52 -62 -27 -29 -49 -58 -49 -64 0 -7 -4 -13 -10 -13 -5 0 -10 -7 -10 -15 0 -13 38 -15 285 -15 157 0 285 4 285 8 0 10 115 129 190 196 30 27 72 64 92 83 21 19 66 55 100 80 35 26 65 50 66 55 2 4 9 8 17 8 7 0 18 6 24 14 7 8 44 33 84 57 40 23 74 45 77 49 10 13 205 115 325 170 98 45 310 123 366 134 8 2 21 6 29 9 28 10 60 15 60 9 0 -7 -102 -126 -112 -130 -5 -2 -8 -8 -8 -13 0 -5 -11 -21 -25 -36 -31 -36 -126 -155 -142 -179 -7 -11 -24 -35 -38 -54 -14 -19 -33 -48 -42 -63 -10 -16 -37 -55 -60 -88 -24 -32 -43 -62 -43 -67 0 -4 -16 -32 -35 -62 -20 -30 -47 -77 -61 -105 -14 -27 -29 -57 -34 -65 -21 -35 -42 -91 -37 -96 9 -10 137 -32 224 -39 l81 -7 15 28 c9 16 24 45 34 64 10 19 20 37 23 40 3 3 11 16 19 30 41 70 82 134 96 150 8 9 15 21 15 26 0 5 13 25 30 44 16 19 29 38 30 42 0 7 127 177 140 188 3 3 13 15 21 27 9 12 56 66 105 119 214 233 336 344 376 344 l28 0 0 -350 0 -350 150 0 150 0 0 339 c0 187 2 346 5 353 4 10 16 13 38 10 26 -4 68 -41 212 -186 99 -100 195 -199 212 -221 115 -144 163 -206 193 -248 l34 -47 170 2 c144 3 171 5 174 18 1 9 -5 24 -15 35 -10 11 -24 31 -31 45 -11 22 -51 78 -145 204 -31 42 -114 144 -156 192 -72 81 -91 104 -91 109 0 8 72 -6 85 -15 6 -5 39 -16 73 -25 35 -9 71 -20 80 -25 10 -5 64 -27 122 -49 58 -22 150 -63 205 -91 55 -27 106 -50 113 -50 6 0 12 -4 12 -8 0 -5 12 -15 28 -23 50 -26 186 -113 241 -154 29 -22 63 -47 75 -55 12 -8 40 -28 61 -45 130 -99 186 -150 313 -289 l36 -38 -25 -19 c-13 -10 -32 -21 -41 -25 -16 -5 -18 -22 -18 -169 0 -90 4 -166 9 -169 12 -8 62 15 140 64 34 22 66 40 69 40 3 0 16 10 30 22 l24 23 29 -35 c17 -19 35 -47 41 -62 5 -16 14 -28 19 -28 5 0 9 -5 9 -11 0 -6 13 -29 29 -52 38 -56 65 -102 96 -162 14 -27 29 -57 34 -65 29 -48 108 -239 149 -360 58 -169 93 -309 117 -465 27 -178 25 -173 59 -194 17 -11 116 -77 219 -146 103 -69 191 -125 195 -125 10 0 2 243 -9 254 -5 6 -9 63 -9 127 0 68 -4 120 -10 124 -5 3 -10 23 -10 44 0 20 -4 41 -9 47 -4 5 -14 51 -21 102 -7 51 -17 95 -21 98 -5 3 -9 16 -9 29 0 13 -4 26 -8 29 -5 3 -15 37 -22 76 -7 38 -16 70 -20 70 -3 0 -13 29 -20 65 -7 36 -17 65 -22 65 -4 0 -8 8 -8 18 -1 9 -9 35 -20 57 -11 22 -19 46 -20 53 0 6 -4 12 -10 12 -5 0 -10 8 -10 17 0 9 -9 37 -21 62 -12 25 -30 66 -42 91 -11 25 -24 52 -28 60 -5 8 -20 38 -34 65 -14 28 -39 70 -55 95 -16 25 -33 52 -37 60 -3 8 -22 37 -40 64 -18 26 -33 52 -33 57 0 5 -8 18 -17 28 -32 35 -40 47 -47 67 -3 10 -19 34 -34 51 -15 18 -43 53 -62 79 -43 57 -87 108 -165 192 -101 109 -241 244 -295 283 -19 14 -57 47 -85 72 -27 26 -58 49 -67 53 -10 3 -18 9 -18 13 0 4 -11 13 -25 19 -14 7 -31 16 -38 22 -28 24 -106 80 -111 80 -3 0 -31 17 -63 38 -80 52 -94 61 -122 72 -13 6 -35 19 -49 30 -13 11 -31 20 -39 20 -8 0 -23 9 -34 19 -12 11 -36 22 -55 25 -18 4 -51 15 -71 26 -85 42 -150 69 -185 75 -21 4 -38 11 -38 15 0 5 -14 11 -31 15 -17 4 -42 13 -57 21 -15 7 -46 16 -69 20 -24 3 -43 10 -43 14 0 5 -31 14 -70 20 -38 6 -72 16 -76 21 -3 5 -18 9 -35 9 -16 0 -29 4 -29 9 0 5 -26 12 -57 14 -82 8 -136 18 -149 28 -6 5 -80 14 -165 20 -85 6 -162 15 -171 20 -25 13 -495 12 -503 -1z"/>
 <path d="M4601 5386 l-23 -25 6 -1213 c4 -667 9 -1225 12 -1240 l6 -28 683 0 683 0 46 55 c26 30 64 72 84 93 20 20 51 54 67 74 47 55 181 204 263 289 l73 77 -1 958 c0 680 -4 961 -11 971 -9 11 -182 13 -938 13 l-928 0 -22 -24z m1701 -906 c1 -412 2 -762 2 -777 l1 -28 -249 -3 c-164 -1 -254 -6 -263 -13 -10 -9 -13 -75 -13 -315 l0 -304 -494 0 c-426 0 -495 2 -506 15 -7 8 -9 15 -4 15 5 0 4 4 -3 8 -9 6 -12 264 -13 1067 -1 583 -1 1066 -1 1073 1 9 162 12 771 12 l770 0 2 -750z m-37 -989 c5 -9 -33 -54 -172 -201 -28 -30 -61 -66 -72 -80 -39 -47 -42 -50 -51 -50 -11 0 -14 323 -3 333 10 11 291 8 298 -2z"/>
 <path d="M1655 5250 c-356 -35 -678 -104 -842 -180 -24 -11 -47 -20 -52 -20 -24 0 -236 -129 -301 -183 -210 -176 -309 -380 -310 -637 0 -328 164 -650 525 -1029 85 -89 338 -314 444 -396 58 -44 63 -46 58 -24 -10 45 -95 548 -102 612 -6 43 -14 57 -80 125 -244 255 -405 535 -405 703 1 333 467 554 1242 589 146 6 320 6 503 0 258 -9 344 -16 495 -40 30 -5 87 -12 125 -15 39 -4 111 -13 160 -22 50 -8 133 -20 185 -28 52 -8 140 -23 195 -34 55 -11 159 -32 230 -47 72 -14 164 -34 205 -45 41 -11 95 -23 120 -28 25 -5 98 -23 162 -40 177 -47 159 -70 156 196 l-3 227 -30 7 c-16 4 -75 19 -130 32 -194 49 -524 121 -630 137 -38 6 -90 16 -115 21 -25 6 -90 17 -145 24 -55 8 -140 21 -190 29 -49 8 -139 20 -200 25 -60 6 -171 18 -245 27 -152 18 -887 28 -1025 14z"/>
 <path d="M1730 4689 c-199 -18 -270 -32 -270 -50 0 -10 -4 -20 -9 -24 -5 -3 -15 -30 -22 -60 -7 -30 -16 -55 -21 -55 -4 0 -8 -11 -8 -24 0 -14 -4 -28 -10 -31 -5 -3 -10 -23 -10 -44 0 -20 -4 -41 -8 -46 -16 -19 -55 -175 -69 -278 -3 -20 -9 -40 -14 -43 -5 -3 -9 -42 -9 -88 0 -45 -4 -86 -9 -91 -5 -6 -12 -44 -15 -85 -4 -41 -10 -122 -15 -180 -15 -170 -9 -382 13 -525 2 -11 9 -69 16 -130 6 -60 20 -150 30 -200 30 -146 44 -229 42 -252 -1 -13 2 -23 7 -23 4 0 14 -31 21 -70 7 -38 16 -70 20 -70 4 0 11 -16 14 -35 4 -19 13 -47 21 -62 8 -15 15 -35 15 -43 0 -9 6 -24 14 -35 7 -11 17 -31 21 -45 17 -59 175 -380 187 -380 4 0 8 -7 8 -15 0 -8 5 -15 10 -15 6 0 10 -8 10 -18 0 -10 8 -27 18 -38 9 -10 23 -31 31 -46 8 -15 21 -36 30 -45 9 -10 22 -30 30 -45 8 -16 18 -28 21 -28 4 0 13 -13 20 -30 7 -16 16 -30 21 -30 5 0 9 -6 9 -14 0 -7 11 -25 25 -38 14 -14 39 -43 55 -64 74 -95 194 -228 273 -303 122 -116 173 -161 181 -161 5 0 18 -11 30 -24 43 -48 254 -206 276 -206 5 0 10 -5 10 -11 0 -5 14 -15 30 -20 17 -6 30 -14 30 -19 0 -4 14 -13 30 -20 17 -7 30 -15 30 -19 0 -3 15 -12 33 -20 17 -8 44 -22 58 -32 39 -27 238 -125 282 -139 20 -6 37 -15 37 -19 0 -4 23 -13 50 -20 28 -7 50 -17 50 -22 0 -5 11 -9 24 -9 14 0 28 -5 31 -10 3 -6 19 -10 36 -10 16 0 29 -4 29 -10 0 -5 9 -10 20 -10 11 0 20 -4 20 -8 0 -5 30 -15 66 -22 36 -8 67 -17 70 -22 3 -4 16 -8 29 -8 13 0 27 -4 30 -10 3 -5 26 -10 50 -10 24 0 47 -4 50 -10 3 -5 15 -10 26 -10 10 0 27 -4 37 -10 9 -5 67 -16 127 -25 61 -9 135 -20 165 -25 105 -17 575 -24 765 -10 98 7 186 16 195 20 8 5 60 14 115 20 55 6 104 15 109 20 6 6 23 10 38 10 15 0 28 5 28 10 0 6 20 10 45 10 25 0 53 4 63 9 40 20 70 31 125 42 32 7 60 16 63 21 3 4 14 8 25 8 10 0 19 5 19 10 0 6 14 10 30 10 17 0 30 5 30 10 0 6 11 10 25 10 14 0 25 4 25 9 0 5 23 14 50 21 28 7 50 15 50 19 0 4 17 13 38 19 20 7 89 39 152 72 63 33 123 63 133 66 9 4 17 10 17 15 0 5 9 9 20 9 11 0 20 4 20 9 0 4 21 19 47 32 26 13 54 30 61 37 7 6 17 12 21 12 5 0 24 13 42 30 19 16 37 30 42 30 4 0 20 12 37 28 16 15 52 43 79 62 28 19 50 38 51 42 0 4 24 23 53 42 82 55 187 156 303 292 59 69 116 136 128 148 34 35 76 89 76 98 0 4 7 8 15 8 8 0 28 19 45 42 16 24 33 48 37 53 5 6 22 30 38 55 17 25 33 47 38 48 4 2 7 8 7 12 0 5 18 37 40 71 22 34 40 68 40 76 0 7 4 13 8 13 4 0 19 22 33 50 13 27 27 50 32 50 4 0 7 7 7 15 0 15 19 55 31 65 3 3 11 21 18 40 19 56 35 90 43 90 5 0 8 11 8 24 0 14 4 28 10 31 6 3 10 15 10 26 0 10 4 19 8 19 5 0 14 19 21 43 12 41 25 75 42 109 5 10 9 31 9 48 0 16 5 30 10 30 6 0 10 11 10 24 0 14 4 27 9 31 5 3 15 39 22 80 6 42 16 78 20 81 5 3 9 22 9 43 0 35 -6 42 -87 109 -95 78 -261 202 -280 209 -14 6 -14 6 -49 -177 -9 -47 -20 -94 -24 -105 -4 -11 -12 -36 -18 -55 -31 -108 -76 -249 -87 -275 -8 -16 -21 -50 -31 -75 -10 -25 -26 -58 -36 -75 -10 -16 -18 -38 -18 -47 0 -9 -6 -23 -12 -30 -7 -7 -31 -49 -53 -93 -22 -43 -58 -106 -80 -140 -22 -33 -46 -72 -53 -86 -8 -14 -27 -41 -43 -60 -16 -19 -29 -37 -29 -41 0 -15 -23 -8 -67 22 -24 17 -46 30 -49 30 -3 0 -24 13 -47 28 -23 15 -55 34 -72 42 -16 8 -32 17 -35 21 -3 3 -20 11 -37 18 -18 8 -33 17 -33 22 0 5 -3 8 -7 7 -5 -1 -60 23 -123 54 -139 67 -255 118 -267 118 -5 0 -17 6 -26 13 -16 11 -16 15 3 67 11 30 20 63 20 72 0 10 4 26 9 36 15 29 43 132 66 245 2 10 7 28 11 40 4 12 10 46 15 77 4 30 10 71 14 90 39 215 45 284 27 302 -8 8 -50 -27 -171 -148 -160 -161 -180 -190 -181 -259 0 -11 -9 -47 -20 -79 -11 -33 -20 -71 -20 -86 0 -14 -4 -30 -9 -36 -5 -5 -19 -48 -31 -97 -26 -99 -40 -125 -61 -111 -14 9 -79 27 -234 65 -44 11 -88 22 -97 24 -39 11 -67 16 -178 35 -63 11 -126 22 -140 26 -27 6 -261 28 -405 39 -52 3 -93 11 -97 18 -4 7 -8 74 -8 150 l0 137 -145 0 c-143 0 -145 0 -146 -22 0 -13 -1 -78 -1 -145 0 -68 -3 -125 -6 -127 -9 -5 -96 -14 -267 -26 -234 -17 -550 -75 -797 -149 -38 -11 -68 -17 -68 -14 0 3 -7 0 -16 -8 -13 -10 -17 -10 -25 2 -12 20 -69 205 -84 274 -3 17 -10 46 -15 65 -34 130 -75 378 -85 510 -3 41 -8 101 -10 133 l-5 57 645 0 645 0 0 195 0 195 -635 0 -635 0 1 53 c2 76 15 248 22 277 3 14 11 65 17 115 11 88 74 387 86 407 11 18 34 130 28 139 -3 5 -20 9 -39 9 -18 0 -69 7 -112 15 -43 8 -92 15 -110 15 -33 0 -36 -5 -58 -90 -3 -14 -12 -49 -20 -77 -8 -29 -17 -67 -20 -85 -3 -18 -15 -76 -26 -128 -12 -52 -25 -126 -29 -165 -5 -38 -11 -86 -14 -105 -12 -73 -26 -232 -26 -292 0 -35 -4 -69 -8 -76 -7 -10 -124 -12 -553 -10 l-544 3 -3 84 c-2 49 1 88 8 95 5 5 10 29 10 52 0 138 137 620 225 794 14 28 23 55 20 60 -7 11 -101 11 -225 -1z m1060 -1561 c0 -88 7 -201 16 -258 3 -19 7 -51 10 -70 3 -19 9 -55 14 -80 5 -25 11 -65 15 -90 13 -96 69 -321 122 -488 22 -71 24 -85 12 -93 -8 -5 -19 -9 -25 -9 -7 0 -38 -12 -70 -26 -33 -14 -75 -33 -94 -41 -100 -44 -346 -172 -422 -220 -21 -12 -40 -23 -43 -23 -2 0 -25 -14 -49 -32 -55 -38 -54 -39 -141 93 -72 110 -105 168 -165 289 -23 47 -48 96 -55 111 -8 14 -24 52 -36 85 -12 32 -25 63 -30 69 -5 5 -9 16 -9 25 0 9 -11 44 -24 77 -22 53 -61 201 -109 418 -9 39 -19 115 -22 170 -3 55 -8 117 -10 138 l-5 37 560 0 560 0 0 -82z m1662 -1081 c11 -17 10 -1574 -1 -1581 -5 -4 -31 11 -58 33 -52 42 -272 257 -313 306 -14 17 -59 69 -100 116 -41 46 -85 98 -97 114 -11 17 -43 59 -70 95 -76 104 -163 235 -163 248 0 7 -4 12 -9 12 -5 0 -11 8 -15 18 -3 9 -17 35 -30 57 -14 21 -22 43 -19 49 3 5 1 6 -5 2 -6 -3 -15 8 -22 29 -6 19 -15 35 -18 35 -4 0 -13 15 -20 33 -7 17 -18 39 -23 47 -5 8 -13 25 -18 36 -5 12 -26 56 -46 98 -20 42 -34 80 -30 85 3 5 24 12 48 16 23 4 47 11 52 16 10 7 21 10 93 24 15 3 45 11 67 17 22 5 48 12 58 14 10 2 28 6 39 10 11 3 59 12 106 19 48 7 98 16 112 20 14 4 90 14 170 21 80 7 156 15 170 16 69 9 134 7 142 -5z m623 -11 c77 -8 151 -17 165 -20 14 -3 66 -13 115 -22 96 -17 330 -70 355 -81 8 -4 35 -12 60 -18 41 -10 45 -13 43 -39 -1 -16 -7 -32 -13 -36 -7 -4 -12 -11 -12 -16 -1 -33 -151 -313 -273 -509 -47 -75 -202 -284 -252 -341 -15 -17 -48 -56 -73 -85 -41 -49 -312 -323 -356 -359 -46 -38 -68 -49 -76 -37 -9 15 -11 1548 -1 1572 7 19 31 19 318 -9z m-1768 -681 c47 -84 73 -125 152 -243 42 -62 81 -121 86 -130 6 -9 12 -19 15 -22 3 -3 32 -39 64 -80 31 -41 69 -91 84 -110 44 -57 156 -184 177 -202 32 -26 13 -30 -51 -9 -32 10 -75 22 -94 26 -19 4 -39 10 -45 14 -5 4 -30 13 -55 20 -25 7 -56 18 -70 24 -14 6 -27 11 -30 12 -3 1 -18 7 -33 13 -15 7 -39 15 -52 18 -14 3 -25 11 -25 17 0 6 -3 8 -6 4 -6 -5 -274 128 -340 169 -63 39 -99 63 -109 71 -5 4 -22 14 -36 21 -15 8 -37 24 -50 35 -13 12 -44 36 -68 52 -87 59 -401 351 -401 373 0 4 26 22 58 40 31 18 84 48 117 68 33 19 78 44 100 54 22 11 47 24 55 30 8 5 47 23 85 40 104 46 140 64 143 73 2 4 11 7 21 7 10 0 35 9 57 19 l39 19 92 -186 c51 -103 105 -209 120 -237z m2916 375 c30 0 353 -169 516 -270 l54 -34 -134 -130 c-74 -72 -157 -149 -184 -171 -28 -22 -57 -47 -65 -56 -25 -26 -229 -164 -320 -215 -132 -76 -360 -184 -390 -187 -11 -1 -20 -4 -20 -8 0 -3 -19 -12 -42 -19 -24 -7 -72 -23 -108 -36 -36 -13 -83 -28 -105 -33 -22 -5 -57 -14 -77 -19 -21 -6 -38 -7 -38 -4 0 3 26 33 58 66 177 189 368 448 504 684 14 26 33 58 41 72 27 47 122 235 147 290 14 30 33 69 43 86 l18 32 47 -24 c26 -13 51 -24 55 -24z"/>
 <path d="M6738 4037 c-2 -6 -4 -115 -3 -242 l1 -229 54 -31 c198 -113 336 -191 345 -194 5 -2 17 -9 25 -16 8 -7 38 -25 65 -41 113 -62 457 -299 622 -428 171 -135 400 -350 490 -461 230 -285 319 -523 257 -695 -10 -28 -39 -77 -64 -107 -44 -54 -159 -144 -210 -164 -14 -5 -43 -18 -65 -29 -65 -31 -152 -62 -213 -76 -31 -7 -86 -19 -122 -28 -36 -8 -117 -22 -180 -31 -63 -9 -126 -19 -140 -21 -14 -2 -77 -7 -141 -10 l-116 -7 -147 -171 c-80 -94 -164 -189 -186 -211 -22 -22 -40 -43 -40 -48 0 -17 539 -4 675 17 16 3 64 8 105 11 41 3 95 11 120 16 25 5 56 12 70 15 14 3 59 11 100 19 42 8 96 20 120 28 25 9 70 22 101 31 31 9 69 23 85 31 16 8 34 15 41 15 22 0 227 111 297 161 39 27 90 68 114 91 47 46 132 151 132 164 0 4 7 15 14 23 28 31 77 163 92 244 67 382 -107 766 -546 1206 -42 42 -96 93 -120 115 -25 21 -72 63 -106 95 -122 113 -587 450 -704 511 -14 7 -27 16 -30 20 -3 4 -30 22 -60 39 -30 18 -95 57 -145 87 -49 30 -103 61 -120 69 -16 9 -57 31 -90 49 -166 94 -373 195 -377 183z"/>
 <path d="M10480 2485 l0 -1105 379 0 378 0 51 53 c27 30 60 77 72 105 l23 52 33 -67 c19 -37 51 -84 71 -105 l37 -38 304 0 305 0 43 35 c43 36 98 109 115 152 5 13 9 463 9 1021 l0 997 -170 3 -169 2 -3 -787 -3 -788 -24 -32 -25 -33 -125 0 c-149 1 -159 6 -190 96 -20 57 -21 77 -21 801 l0 743 -180 0 -180 0 0 -750 c0 -812 2 -787 -54 -862 l-20 -28 -158 0 -158 0 0 820 0 820 -170 0 -170 0 0 -1105z"/>
 <path d="M9065 3513 c52 -233 67 -301 89 -398 13 -60 36 -166 51 -235 15 -69 37 -172 50 -230 13 -58 36 -159 50 -225 61 -280 76 -346 103 -460 l28 -120 197 -3 c153 -2 198 0 201 10 5 16 47 202 81 363 25 119 48 226 100 465 15 69 38 177 52 240 14 63 35 165 49 225 58 266 74 343 80 383 l6 42 -156 0 -156 0 0 -34 c0 -19 -9 -72 -20 -118 -11 -46 -25 -114 -29 -152 -5 -38 -13 -72 -18 -76 -4 -4 -92 -10 -195 -12 l-188 -4 -5 36 c-3 19 -16 85 -29 145 -14 61 -28 133 -33 160 l-8 50 -156 3 -157 2 13 -57z m675 -750 c0 -26 -10 -75 -76 -369 -14 -63 -29 -112 -32 -109 -9 9 -41 145 -42 175 0 14 -11 69 -25 122 -13 53 -28 122 -33 152 l-9 56 109 0 108 0 0 -27z"/>
 <path d="M12587 3523 c-18 -27 -46 -78 -60 -116 l-27 -67 0 -615 0 -615 31 -97 c17 -54 42 -115 56 -135 l26 -38 423 0 423 0 20 29 c11 16 35 66 53 112 l33 84 0 655 0 655 -30 60 c-16 32 -46 76 -66 97 l-36 38 -406 0 -405 0 -35 -47z m680 -453 c21 -43 22 -56 23 -353 0 -193 -4 -325 -11 -352 -19 -76 -19 -76 -250 -73 l-204 3 -20 40 c-19 37 -20 63 -23 360 -2 176 -1 329 2 340 3 11 15 35 26 53 l20 32 207 -2 208 -3 22 -45z"/>
 <path d="M13987 3458 c-15 -62 -38 -167 -52 -233 -46 -216 -77 -358 -100 -465 -22 -99 -42 -195 -102 -470 -13 -63 -33 -155 -44 -203 -11 -48 -24 -111 -29 -140 -4 -29 -11 -64 -15 -79 l-7 -28 161 0 161 0 0 24 c0 13 11 74 25 135 14 62 27 129 29 150 2 21 13 80 24 132 11 52 27 130 36 174 25 136 37 196 62 316 13 63 24 130 24 147 0 18 3 32 8 32 8 0 42 -142 42 -175 0 -11 11 -72 24 -135 14 -63 37 -173 51 -245 14 -71 37 -184 50 -250 13 -66 32 -162 42 -213 10 -51 22 -93 26 -92 4 0 76 0 161 0 l154 0 -23 98 c-25 104 -59 253 -101 447 -32 149 -64 295 -98 445 -14 63 -37 169 -52 235 -14 66 -39 175 -55 242 -16 67 -29 131 -29 141 0 10 -7 42 -15 70 l-16 52 -158 0 -159 0 -25 -112z"/>
 <path d="M14841 3546 c-12 -13 -31 -52 -42 -86 -18 -59 -19 -98 -19 -756 0 -684 0 -694 21 -751 12 -32 30 -70 41 -85 l19 -28 430 0 429 0 -2 223 -3 222 -322 3 -323 2 0 115 0 115 50 0 c28 0 50 -4 50 -10 0 -6 98 -10 275 -10 l275 0 0 200 0 200 -325 0 -325 0 0 110 0 110 325 0 325 0 0 225 0 225 -428 0 -429 0 -22 -24z"/>
 </g>
<g id="layer102" fill="#595959" stroke="none">
 <path d="M4375 6780 c-3 -5 -30 -10 -59 -10 -82 0 -270 -21 -281 -31 -5 -5 -26 -9 -47 -9 -21 0 -38 -4 -38 -10 0 -6 -26 -10 -59 -10 -33 0 -63 -4 -66 -10 -3 -5 -17 -10 -30 -10 -13 0 -26 -4 -29 -9 -3 -4 -39 -14 -81 -22 -41 -7 -75 -16 -75 -20 0 -3 -27 -12 -60 -19 -33 -7 -60 -17 -60 -21 0 -5 -9 -9 -21 -9 -11 0 -30 -5 -42 -12 -32 -18 -89 -38 -109 -38 -10 0 -18 -4 -18 -10 0 -5 -6 -10 -12 -10 -7 0 -40 -14 -73 -30 -33 -16 -67 -30 -76 -30 -8 0 -24 -8 -35 -19 -11 -10 -36 -24 -56 -30 -20 -7 -42 -19 -48 -27 -7 -7 -17 -14 -22 -14 -12 0 -128 -69 -146 -87 -7 -7 -20 -13 -28 -13 -8 0 -17 -7 -20 -15 -4 -8 -14 -15 -24 -15 -10 0 -20 -6 -23 -13 -2 -6 -35 -30 -72 -52 -37 -21 -69 -45 -72 -52 -3 -7 -10 -13 -15 -13 -11 0 -56 -34 -114 -87 -20 -18 -38 -33 -40 -33 -23 0 -419 -404 -433 -441 -1 -6 -25 -34 -52 -62 -27 -29 -49 -58 -49 -64 0 -7 -4 -13 -10 -13 -5 0 -10 -7 -10 -15 0 -13 38 -15 285 -15 157 0 285 4 285 8 0 10 115 129 190 196 30 27 72 64 92 83 21 19 66 55 100 80 35 26 65 50 66 55 2 4 9 8 17 8 7 0 18 6 24 14 7 8 44 33 84 57 40 23 74 45 77 49 10 13 205 115 325 170 98 45 310 123 366 134 8 2 21 6 29 9 28 10 60 15 60 9 0 -7 -102 -126 -112 -130 -5 -2 -8 -8 -8 -13 0 -5 -11 -21 -25 -36 -31 -36 -126 -155 -142 -179 -7 -11 -24 -35 -38 -54 -14 -19 -33 -48 -42 -63 -10 -16 -37 -55 -60 -88 -24 -32 -43 -62 -43 -67 0 -4 -16 -32 -35 -62 -20 -30 -47 -77 -61 -105 -14 -27 -29 -57 -34 -65 -21 -35 -42 -91 -37 -96 9 -10 137 -32 224 -39 l81 -7 15 28 c9 16 24 45 34 64 10 19 20 37 23 40 3 3 11 16 19 30 41 70 82 134 96 150 8 9 15 21 15 26 0 5 13 25 30 44 16 19 29 38 30 42 0 7 127 177 140 188 3 3 13 15 21 27 9 12 56 66 105 119 214 233 336 344 376 344 l28 0 0 -350 0 -350 150 0 150 0 0 339 c0 187 2 346 5 353 4 10 16 13 38 10 26 -4 68 -41 212 -186 99 -100 195 -199 212 -221 115 -144 163 -206 193 -248 l34 -47 170 2 c144 3 171 5 174 18 1 9 -5 24 -15 35 -10 11 -24 31 -31 45 -11 22 -51 78 -145 204 -31 42 -114 144 -156 192 -72 81 -91 104 -91 109 0 8 72 -6 85 -15 6 -5 39 -16 73 -25 35 -9 71 -20 80 -25 10 -5 64 -27 122 -49 58 -22 150 -63 205 -91 55 -27 106 -50 113 -50 6 0 12 -4 12 -8 0 -5 12 -15 28 -23 50 -26 186 -113 241 -154 29 -22 63 -47 75 -55 12 -8 40 -28 61 -45 130 -99 186 -150 313 -289 l36 -38 -25 -19 c-13 -10 -32 -21 -41 -25 -16 -5 -18 -22 -18 -169 0 -90 4 -166 9 -169 12 -8 62 15 140 64 34 22 66 40 69 40 3 0 16 10 30 22 l24 23 29 -35 c17 -19 35 -47 41 -62 5 -16 14 -28 19 -28 5 0 9 -5 9 -11 0 -6 13 -29 29 -52 38 -56 65 -102 96 -162 14 -27 29 -57 34 -65 29 -48 108 -239 149 -360 58 -169 93 -309 117 -465 27 -178 25 -173 59 -194 17 -11 116 -77 219 -146 103 -69 191 -125 195 -125 10 0 2 243 -9 254 -5 6 -9 63 -9 127 0 68 -4 120 -10 124 -5 3 -10 23 -10 44 0 20 -4 41 -9 47 -4 5 -14 51 -21 102 -7 51 -17 95 -21 98 -5 3 -9 16 -9 29 0 13 -4 26 -8 29 -5 3 -15 37 -22 76 -7 38 -16 70 -20 70 -3 0 -13 29 -20 65 -7 36 -17 65 -22 65 -4 0 -8 8 -8 18 -1 9 -9 35 -20 57 -11 22 -19 46 -20 53 0 6 -4 12 -10 12 -5 0 -10 8 -10 17 0 9 -9 37 -21 62 -12 25 -30 66 -42 91 -11 25 -24 52 -28 60 -5 8 -20 38 -34 65 -14 28 -39 70 -55 95 -16 25 -33 52 -37 60 -3 8 -22 37 -40 64 -18 26 -33 52 -33 57 0 5 -8 18 -17 28 -32 35 -40 47 -47 67 -3 10 -19 34 -34 51 -15 18 -43 53 -62 79 -43 57 -87 108 -165 192 -101 109 -241 244 -295 283 -19 14 -57 47 -85 72 -27 26 -58 49 -67 53 -10 3 -18 9 -18 13 0 4 -11 13 -25 19 -14 7 -31 16 -38 22 -28 24 -106 80 -111 80 -3 0 -31 17 -63 38 -80 52 -94 61 -122 72 -13 6 -35 19 -49 30 -13 11 -31 20 -39 20 -8 0 -23 9 -34 19 -12 11 -36 22 -55 25 -18 4 -51 15 -71 26 -85 42 -150 69 -185 75 -21 4 -38 11 -38 15 0 5 -14 11 -31 15 -17 4 -42 13 -57 21 -15 7 -46 16 -69 20 -24 3 -43 10 -43 14 0 5 -31 14 -70 20 -38 6 -72 16 -76 21 -3 5 -18 9 -35 9 -16 0 -29 4 -29 9 0 5 -26 12 -57 14 -82 8 -136 18 -149 28 -6 5 -80 14 -165 20 -85 6 -162 15 -171 20 -25 13 -495 12 -503 -1z"/>
 <path d="M4601 5386 l-23 -25 6 -1213 c4 -667 9 -1225 12 -1240 l6 -28 683 0 683 0 46 55 c26 30 64 72 84 93 20 20 51 54 67 74 47 55 181 204 263 289 l73 77 -1 958 c0 680 -4 961 -11 971 -9 11 -182 13 -938 13 l-928 0 -22 -24z m1701 -906 c1 -412 2 -762 2 -777 l1 -28 -249 -3 c-164 -1 -254 -6 -263 -13 -10 -9 -13 -75 -13 -315 l0 -304 -494 0 c-426 0 -495 2 -506 15 -7 8 -9 15 -4 15 5 0 4 4 -3 8 -9 6 -12 264 -13 1067 -1 583 -1 1066 -1 1073 1 9 162 12 771 12 l770 0 2 -750z m-37 -989 c5 -9 -33 -54 -172 -201 -28 -30 -61 -66 -72 -80 -39 -47 -42 -50 -51 -50 -11 0 -14 323 -3 333 10 11 291 8 298 -2z"/>
 <path d="M1655 5250 c-356 -35 -678 -104 -842 -180 -24 -11 -47 -20 -52 -20 -24 0 -236 -129 -301 -183 -210 -176 -309 -380 -310 -637 0 -328 164 -650 525 -1029 85 -89 338 -314 444 -396 58 -44 63 -46 58 -24 -10 45 -95 548 -102 612 -6 43 -14 57 -80 125 -244 255 -405 535 -405 703 1 333 467 554 1242 589 146 6 320 6 503 0 258 -9 344 -16 495 -40 30 -5 87 -12 125 -15 39 -4 111 -13 160 -22 50 -8 133 -20 185 -28 52 -8 140 -23 195 -34 55 -11 159 -32 230 -47 72 -14 164 -34 205 -45 41 -11 95 -23 120 -28 25 -5 98 -23 162 -40 177 -47 159 -70 156 196 l-3 227 -30 7 c-16 4 -75 19 -130 32 -194 49 -524 121 -630 137 -38 6 -90 16 -115 21 -25 6 -90 17 -145 24 -55 8 -140 21 -190 29 -49 8 -139 20 -200 25 -60 6 -171 18 -245 27 -152 18 -887 28 -1025 14z"/>
 <path d="M1730 4689 c-199 -18 -270 -32 -270 -50 0 -10 -4 -20 -9 -24 -5 -3 -15 -30 -22 -60 -7 -30 -16 -55 -21 -55 -4 0 -8 -11 -8 -24 0 -14 -4 -28 -10 -31 -5 -3 -10 -23 -10 -44 0 -20 -4 -41 -8 -46 -16 -19 -55 -175 -69 -278 -3 -20 -9 -40 -14 -43 -5 -3 -9 -42 -9 -88 0 -45 -4 -86 -9 -91 -5 -6 -12 -44 -15 -85 -4 -41 -10 -122 -15 -180 -15 -170 -9 -382 13 -525 2 -11 9 -69 16 -130 6 -60 20 -150 30 -200 30 -146 44 -229 42 -252 -1 -13 2 -23 7 -23 4 0 14 -31 21 -70 7 -38 16 -70 20 -70 4 0 11 -16 14 -35 4 -19 13 -47 21 -62 8 -15 15 -35 15 -43 0 -9 6 -24 14 -35 7 -11 17 -31 21 -45 17 -59 175 -380 187 -380 4 0 8 -7 8 -15 0 -8 5 -15 10 -15 6 0 10 -8 10 -18 0 -10 8 -27 18 -38 9 -10 23 -31 31 -46 8 -15 21 -36 30 -45 9 -10 22 -30 30 -45 8 -16 18 -28 21 -28 4 0 13 -13 20 -30 7 -16 16 -30 21 -30 5 0 9 -6 9 -14 0 -7 11 -25 25 -38 14 -14 39 -43 55 -64 74 -95 194 -228 273 -303 122 -116 173 -161 181 -161 5 0 18 -11 30 -24 43 -48 254 -206 276 -206 5 0 10 -5 10 -11 0 -5 14 -15 30 -20 17 -6 30 -14 30 -19 0 -4 14 -13 30 -20 17 -7 30 -15 30 -19 0 -3 15 -12 33 -20 17 -8 44 -22 58 -32 39 -27 238 -125 282 -139 20 -6 37 -15 37 -19 0 -4 23 -13 50 -20 28 -7 50 -17 50 -22 0 -5 11 -9 24 -9 14 0 28 -5 31 -10 3 -6 19 -10 36 -10 16 0 29 -4 29 -10 0 -5 9 -10 20 -10 11 0 20 -4 20 -8 0 -5 30 -15 66 -22 36 -8 67 -17 70 -22 3 -4 16 -8 29 -8 13 0 27 -4 30 -10 3 -5 26 -10 50 -10 24 0 47 -4 50 -10 3 -5 15 -10 26 -10 10 0 27 -4 37 -10 9 -5 67 -16 127 -25 61 -9 135 -20 165 -25 105 -17 575 -24 765 -10 98 7 186 16 195 20 8 5 60 14 115 20 55 6 104 15 109 20 6 6 23 10 38 10 15 0 28 5 28 10 0 6 20 10 45 10 25 0 53 4 63 9 40 20 70 31 125 42 32 7 60 16 63 21 3 4 14 8 25 8 10 0 19 5 19 10 0 6 14 10 30 10 17 0 30 5 30 10 0 6 11 10 25 10 14 0 25 4 25 9 0 5 23 14 50 21 28 7 50 15 50 19 0 4 17 13 38 19 20 7 89 39 152 72 63 33 123 63 133 66 9 4 17 10 17 15 0 5 9 9 20 9 11 0 20 4 20 9 0 4 21 19 47 32 26 13 54 30 61 37 7 6 17 12 21 12 5 0 24 13 42 30 19 16 37 30 42 30 4 0 20 12 37 28 16 15 52 43 79 62 28 19 50 38 51 42 0 4 24 23 53 42 82 55 187 156 303 292 59 69 116 136 128 148 34 35 76 89 76 98 0 4 7 8 15 8 8 0 28 19 45 42 16 24 33 48 37 53 5 6 22 30 38 55 17 25 33 47 38 48 4 2 7 8 7 12 0 5 18 37 40 71 22 34 40 68 40 76 0 7 4 13 8 13 4 0 19 22 33 50 13 27 27 50 32 50 4 0 7 7 7 15 0 15 19 55 31 65 3 3 11 21 18 40 19 56 35 90 43 90 5 0 8 11 8 24 0 14 4 28 10 31 6 3 10 15 10 26 0 10 4 19 8 19 5 0 14 19 21 43 12 41 25 75 42 109 5 10 9 31 9 48 0 16 5 30 10 30 6 0 10 11 10 24 0 14 4 27 9 31 5 3 15 39 22 80 6 42 16 78 20 81 5 3 9 22 9 43 0 35 -6 42 -87 109 -95 78 -261 202 -280 209 -14 6 -14 6 -49 -177 -9 -47 -20 -94 -24 -105 -4 -11 -12 -36 -18 -55 -31 -108 -76 -249 -87 -275 -8 -16 -21 -50 -31 -75 -10 -25 -26 -58 -36 -75 -10 -16 -18 -38 -18 -47 0 -9 -6 -23 -12 -30 -7 -7 -31 -49 -53 -93 -22 -43 -58 -106 -80 -140 -22 -33 -46 -72 -53 -86 -8 -14 -27 -41 -43 -60 -16 -19 -29 -37 -29 -41 0 -15 -23 -8 -67 22 -24 17 -46 30 -49 30 -3 0 -24 13 -47 28 -23 15 -55 34 -72 42 -16 8 -32 17 -35 21 -3 3 -20 11 -37 18 -18 8 -33 17 -33 22 0 5 -3 8 -7 7 -5 -1 -60 23 -123 54 -139 67 -255 118 -267 118 -5 0 -17 6 -26 13 -16 11 -16 15 3 67 11 30 20 63 20 72 0 10 4 26 9 36 15 29 43 132 66 245 2 10 7 28 11 40 4 12 10 46 15 77 4 30 10 71 14 90 39 215 45 284 27 302 -8 8 -50 -27 -171 -148 -160 -161 -180 -190 -181 -259 0 -11 -9 -47 -20 -79 -11 -33 -20 -71 -20 -86 0 -14 -4 -30 -9 -36 -5 -5 -19 -48 -31 -97 -26 -99 -40 -125 -61 -111 -14 9 -79 27 -234 65 -44 11 -88 22 -97 24 -39 11 -67 16 -178 35 -63 11 -126 22 -140 26 -27 6 -261 28 -405 39 -52 3 -93 11 -97 18 -4 7 -8 74 -8 150 l0 137 -145 0 c-143 0 -145 0 -146 -22 0 -13 -1 -78 -1 -145 0 -68 -3 -125 -6 -127 -9 -5 -96 -14 -267 -26 -234 -17 -550 -75 -797 -149 -38 -11 -68 -17 -68 -14 0 3 -7 0 -16 -8 -13 -10 -17 -10 -25 2 -12 20 -69 205 -84 274 -3 17 -10 46 -15 65 -34 130 -75 378 -85 510 -3 41 -8 101 -10 133 l-5 57 645 0 645 0 0 195 0 195 -635 0 -635 0 1 53 c2 76 15 248 22 277 3 14 11 65 17 115 11 88 74 387 86 407 11 18 34 130 28 139 -3 5 -20 9 -39 9 -18 0 -69 7 -112 15 -43 8 -92 15 -110 15 -33 0 -36 -5 -58 -90 -3 -14 -12 -49 -20 -77 -8 -29 -17 -67 -20 -85 -3 -18 -15 -76 -26 -128 -12 -52 -25 -126 -29 -165 -5 -38 -11 -86 -14 -105 -12 -73 -26 -232 -26 -292 0 -35 -4 -69 -8 -76 -7 -10 -124 -12 -553 -10 l-544 3 -3 84 c-2 49 1 88 8 95 5 5 10 29 10 52 0 138 137 620 225 794 14 28 23 55 20 60 -7 11 -101 11 -225 -1z m1060 -1561 c0 -88 7 -201 16 -258 3 -19 7 -51 10 -70 3 -19 9 -55 14 -80 5 -25 11 -65 15 -90 13 -96 69 -321 122 -488 22 -71 24 -85 12 -93 -8 -5 -19 -9 -25 -9 -7 0 -38 -12 -70 -26 -33 -14 -75 -33 -94 -41 -100 -44 -346 -172 -422 -220 -21 -12 -40 -23 -43 -23 -2 0 -25 -14 -49 -32 -55 -38 -54 -39 -141 93 -72 110 -105 168 -165 289 -23 47 -48 96 -55 111 -8 14 -24 52 -36 85 -12 32 -25 63 -30 69 -5 5 -9 16 -9 25 0 9 -11 44 -24 77 -22 53 -61 201 -109 418 -9 39 -19 115 -22 170 -3 55 -8 117 -10 138 l-5 37 560 0 560 0 0 -82z m1662 -1081 c11 -17 10 -1574 -1 -1581 -5 -4 -31 11 -58 33 -52 42 -272 257 -313 306 -14 17 -59 69 -100 116 -41 46 -85 98 -97 114 -11 17 -43 59 -70 95 -76 104 -163 235 -163 248 0 7 -4 12 -9 12 -5 0 -11 8 -15 18 -3 9 -17 35 -30 57 -14 21 -22 43 -19 49 3 5 1 6 -5 2 -6 -3 -15 8 -22 29 -6 19 -15 35 -18 35 -4 0 -13 15 -20 33 -7 17 -18 39 -23 47 -5 8 -13 25 -18 36 -5 12 -26 56 -46 98 -20 42 -34 80 -30 85 3 5 24 12 48 16 23 4 47 11 52 16 10 7 21 10 93 24 15 3 45 11 67 17 22 5 48 12 58 14 10 2 28 6 39 10 11 3 59 12 106 19 48 7 98 16 112 20 14 4 90 14 170 21 80 7 156 15 170 16 69 9 134 7 142 -5z m623 -11 c77 -8 151 -17 165 -20 14 -3 66 -13 115 -22 96 -17 330 -70 355 -81 8 -4 35 -12 60 -18 41 -10 45 -13 43 -39 -1 -16 -7 -32 -13 -36 -7 -4 -12 -11 -12 -16 -1 -33 -151 -313 -273 -509 -47 -75 -202 -284 -252 -341 -15 -17 -48 -56 -73 -85 -41 -49 -312 -323 -356 -359 -46 -38 -68 -49 -76 -37 -9 15 -11 1548 -1 1572 7 19 31 19 318 -9z m-1768 -681 c47 -84 73 -125 152 -243 42 -62 81 -121 86 -130 6 -9 12 -19 15 -22 3 -3 32 -39 64 -80 31 -41 69 -91 84 -110 44 -57 156 -184 177 -202 32 -26 13 -30 -51 -9 -32 10 -75 22 -94 26 -19 4 -39 10 -45 14 -5 4 -30 13 -55 20 -25 7 -56 18 -70 24 -14 6 -27 11 -30 12 -3 1 -18 7 -33 13 -15 7 -39 15 -52 18 -14 3 -25 11 -25 17 0 6 -3 8 -6 4 -6 -5 -274 128 -340 169 -63 39 -99 63 -109 71 -5 4 -22 14 -36 21 -15 8 -37 24 -50 35 -13 12 -44 36 -68 52 -87 59 -401 351 -401 373 0 4 26 22 58 40 31 18 84 48 117 68 33 19 78 44 100 54 22 11 47 24 55 30 8 5 47 23 85 40 104 46 140 64 143 73 2 4 11 7 21 7 10 0 35 9 57 19 l39 19 92 -186 c51 -103 105 -209 120 -237z m2916 375 c30 0 353 -169 516 -270 l54 -34 -134 -130 c-74 -72 -157 -149 -184 -171 -28 -22 -57 -47 -65 -56 -25 -26 -229 -164 -320 -215 -132 -76 -360 -184 -390 -187 -11 -1 -20 -4 -20 -8 0 -3 -19 -12 -42 -19 -24 -7 -72 -23 -108 -36 -36 -13 -83 -28 -105 -33 -22 -5 -57 -14 -77 -19 -21 -6 -38 -7 -38 -4 0 3 26 33 58 66 177 189 368 448 504 684 14 26 33 58 41 72 27 47 122 235 147 290 14 30 33 69 43 86 l18 32 47 -24 c26 -13 51 -24 55 -24z"/>
 <path d="M6738 4037 c-2 -6 -4 -115 -3 -242 l1 -229 54 -31 c198 -113 336 -191 345 -194 5 -2 17 -9 25 -16 8 -7 38 -25 65 -41 113 -62 457 -299 622 -428 171 -135 400 -350 490 -461 230 -285 319 -523 257 -695 -10 -28 -39 -77 -64 -107 -44 -54 -159 -144 -210 -164 -14 -5 -43 -18 -65 -29 -65 -31 -152 -62 -213 -76 -31 -7 -86 -19 -122 -28 -36 -8 -117 -22 -180 -31 -63 -9 -126 -19 -140 -21 -14 -2 -77 -7 -141 -10 l-116 -7 -147 -171 c-80 -94 -164 -189 -186 -211 -22 -22 -40 -43 -40 -48 0 -17 539 -4 675 17 16 3 64 8 105 11 41 3 95 11 120 16 25 5 56 12 70 15 14 3 59 11 100 19 42 8 96 20 120 28 25 9 70 22 101 31 31 9 69 23 85 31 16 8 34 15 41 15 22 0 227 111 297 161 39 27 90 68 114 91 47 46 132 151 132 164 0 4 7 15 14 23 28 31 77 163 92 244 67 382 -107 766 -546 1206 -42 42 -96 93 -120 115 -25 21 -72 63 -106 95 -122 113 -587 450 -704 511 -14 7 -27 16 -30 20 -3 4 -30 22 -60 39 -30 18 -95 57 -145 87 -49 30 -103 61 -120 69 -16 9 -57 31 -90 49 -166 94 -373 195 -377 183z"/>
 <path d="M9065 3513 c52 -233 67 -301 89 -398 13 -60 36 -166 51 -235 15 -69 37 -172 50 -230 13 -58 36 -159 50 -225 61 -280 76 -346 103 -460 l28 -120 197 -3 c153 -2 198 0 201 10 5 16 47 202 81 363 25 119 48 226 100 465 15 69 38 177 52 240 14 63 35 165 49 225 58 266 74 343 80 383 l6 42 -156 0 -156 0 0 -34 c0 -19 -9 -72 -20 -118 -11 -46 -25 -114 -29 -152 -5 -38 -13 -72 -18 -76 -4 -4 -92 -10 -195 -12 l-188 -4 -5 36 c-3 19 -16 85 -29 145 -14 61 -28 133 -33 160 l-8 50 -156 3 -157 2 13 -57z m675 -750 c0 -26 -10 -75 -76 -369 -14 -63 -29 -112 -32 -109 -9 9 -41 145 -42 175 0 14 -11 69 -25 122 -13 53 -28 122 -33 152 l-9 56 109 0 108 0 0 -27z"/>
 </g>
<g id="layer103" fill="#70ac48" stroke="none">
 <path d="M6738 4037 c-2 -6 -4 -115 -3 -242 l1 -229 54 -31 c198 -113 336 -191 345 -194 5 -2 17 -9 25 -16 8 -7 38 -25 65 -41 113 -62 457 -299 622 -428 171 -135 400 -350 490 -461 230 -285 319 -523 257 -695 -10 -28 -39 -77 -64 -107 -44 -54 -159 -144 -210 -164 -14 -5 -43 -18 -65 -29 -65 -31 -152 -62 -213 -76 -31 -7 -86 -19 -122 -28 -36 -8 -117 -22 -180 -31 -63 -9 -126 -19 -140 -21 -14 -2 -77 -7 -141 -10 l-116 -7 -147 -171 c-80 -94 -164 -189 -186 -211 -22 -22 -40 -43 -40 -48 0 -17 539 -4 675 17 16 3 64 8 105 11 41 3 95 11 120 16 25 5 56 12 70 15 14 3 59 11 100 19 42 8 96 20 120 28 25 9 70 22 101 31 31 9 69 23 85 31 16 8 34 15 41 15 22 0 227 111 297 161 39 27 90 68 114 91 47 46 132 151 132 164 0 4 7 15 14 23 28 31 77 163 92 244 67 382 -107 766 -546 1206 -42 42 -96 93 -120 115 -25 21 -72 63 -106 95 -122 113 -587 450 -704 511 -14 7 -27 16 -30 20 -3 4 -30 22 -60 39 -30 18 -95 57 -145 87 -49 30 -103 61 -120 69 -16 9 -57 31 -90 49 -166 94 -373 195 -377 183z"/>
 <path d="M9065 3513 c52 -233 67 -301 89 -398 13 -60 36 -166 51 -235 15 -69 37 -172 50 -230 13 -58 36 -159 50 -225 61 -280 76 -346 103 -460 l28 -120 197 -3 c153 -2 198 0 201 10 5 16 47 202 81 363 25 119 48 226 100 465 15 69 38 177 52 240 14 63 35 165 49 225 58 266 74 343 80 383 l6 42 -156 0 -156 0 0 -34 c0 -19 -9 -72 -20 -118 -11 -46 -25 -114 -29 -152 -5 -38 -13 -72 -18 -76 -4 -4 -92 -10 -195 -12 l-188 -4 -5 36 c-3 19 -16 85 -29 145 -14 61 -28 133 -33 160 l-8 50 -156 3 -157 2 13 -57z m675 -750 c0 -26 -10 -75 -76 -369 -14 -63 -29 -112 -32 -109 -9 9 -41 145 -42 175 0 14 -11 69 -25 122 -13 53 -28 122 -33 152 l-9 56 109 0 108 0 0 -27z"/>
 </g>

</svg>